<?xml version="1.0" encoding="UTF-8" standalone="no"?>
<!-- Created with Inkscape (http://www.inkscape.org/) -->

<svg
   xmlns:dc="http://purl.org/dc/elements/1.1/"
   xmlns:cc="http://creativecommons.org/ns#"
   xmlns:rdf="http://www.w3.org/1999/02/22-rdf-syntax-ns#"
   xmlns:svg="http://www.w3.org/2000/svg"
   xmlns="http://www.w3.org/2000/svg"
   xmlns:sodipodi="http://sodipodi.sourceforge.net/DTD/sodipodi-0.dtd"
   xmlns:inkscape="http://www.inkscape.org/namespaces/inkscape"
   width="210mm"
   height="297mm"
   viewBox="0 0 210 297"
   version="1.1"
   id="svg8"
   inkscape:version="0.92.4 (5da689c313, 2019-01-14)"
   sodipodi:docname="NSFreeFont.svg">
  <defs
     id="defs2" />
  <sodipodi:namedview
     id="base"
     pagecolor="#ffffff"
     bordercolor="#666666"
     borderopacity="1.0"
     inkscape:pageopacity="0.0"
     inkscape:pageshadow="2"
     inkscape:zoom="0.0875"
     inkscape:cx="-128.55777"
     inkscape:cy="828.26"
     inkscape:document-units="mm"
     inkscape:current-layer="layer1"
     showgrid="false"
     inkscape:window-width="1280"
     inkscape:window-height="737"
     inkscape:window-x="-8"
     inkscape:window-y="-8"
     inkscape:window-maximized="1" />
  <metadata
     id="metadata5">
    <rdf:RDF>
      <cc:Work
         rdf:about="">
        <dc:format>image/svg+xml</dc:format>
        <dc:type
           rdf:resource="http://purl.org/dc/dcmitype/StillImage" />
        <dc:title></dc:title>
      </cc:Work>
    </rdf:RDF>
  </metadata>
  <g
     inkscape:label="Layer 1"
     inkscape:groupmode="layer"
     id="layer1">
    <g
       id="g4821"
       transform="translate(-177.46697,-59.868374)">
      <rect
         y="134.50012"
         x="-115.46045"
         height="342.10498"
         width="342.10498"
         id="rect4640"
         style="fill:#008080;fill-opacity:1;stroke:none;stroke-width:5;stroke-miterlimit:4;stroke-dasharray:none;stroke-opacity:1" />
      <rect
         y="134.50012"
         x="-115.46045"
         height="342.10498"
         width="58.799282"
         id="rect4640-9"
         style="fill:#80b3ff;fill-opacity:1;stroke:none;stroke-width:2.07289028;stroke-miterlimit:4;stroke-dasharray:none;stroke-opacity:1" />
      <rect
         y="134.50012"
         x="226.64453"
         height="342.10498"
         width="32.606869"
         id="rect4640-9-1"
         style="fill:#ffaaaa;fill-opacity:1;stroke:none;stroke-width:1.54363585;stroke-miterlimit:4;stroke-dasharray:none;stroke-opacity:1" />
      <rect
         y="134.50012"
         x="167.84525"
         height="342.10498"
         width="58.799282"
         id="rect4640-9-3"
         style="fill:#ffdd55;fill-opacity:1;stroke:none;stroke-width:2.07289028;stroke-miterlimit:4;stroke-dasharray:none;stroke-opacity:1" />
      <rect
         transform="rotate(90)"
         y="-167.84525"
         x="134.50012"
         height="224.50641"
         width="58.799282"
         id="rect4640-9-3-5"
         style="fill:#ccaaff;fill-opacity:1;stroke:none;stroke-width:1.67923307;stroke-miterlimit:4;stroke-dasharray:none;stroke-opacity:1" />
      <rect
         transform="rotate(90)"
         y="-167.84525"
         x="417.80582"
         height="224.50642"
         width="58.799282"
         id="rect4640-9-3-5-5"
         style="fill:#ff80b2;fill-opacity:1;stroke:none;stroke-width:1.67923307;stroke-miterlimit:4;stroke-dasharray:none;stroke-opacity:1" />
      <path
         id="path4714"
         transform="scale(0.26458333)"
         d="m -13.123047,508.14453 v 201.20313 l -200.759763,-200.75977 -0.70313,0.70703 201.462893,201.46289 v 20.79883 h -0.154297 v 199.19141 l -200.523436,-200.52344 -0.50586,0.50781 -222.14453,-222.14453 -0.70313,0.70703 423.417972,423.41797 H -233.88086 l -202.48828,-202.48828 -0.70313,0.70703 201.78125,201.78125 h -201.16796 v 0.79883 h 201.96679 l 20.18946,20.18945 -0.4375,0.44141 90.28125,90.28122 -109.92383,109.9258 h -1.3086 l -200.91406,-200.91405 -0.70312,0.70703 200.20703,200.20702 h -199.27539 v 0.7988 h 200.07422 l 0.56054,0.5606 -201.41211,201.4121 0.70313,0.7012 201.41211,-201.4121 110.15625,110.1582 -110.99219,110.9921 h -200.73828 v 0.7989 h 199.93945 l -200.39844,200.3984 0.70313,0.7012 201.09961,-201.0996 h 221.164061 l -200.398441,200.3984 0.20313,0.2031 -222.98633,222.9864 h 1.4043 l 422.605466,-422.6035 v 221.1621 l -201.441406,201.4414 h 1.4043 l 200.037106,-200.0371 v 200.0371 h 0.982422 v -0.7285 h 0.236328 V 1600.6914 L 98.591797,1490.043 208.94727,1600.4004 7.4042969,1801.9453 l 0.00195,0 H 8.8066406 L 209.29102,1601.4629 v 200.4844 h 0.98242 v -0.7285 h 0.23633 v -199.2559 l 199.98437,199.9844 h 1.41016 L 210.50977,1600.5527 v -0.3086 l 110.42578,-110.4257 110.49804,110.498 v 201.6309 h 0.98243 v -0.752 h 0.23632 v -199.6601 l 200.41211,200.4121 h 1.41016 L 432.65234,1600.125 v -220.7559 l 422.57813,422.5782 h 1.40625 l 0.002,-0 -222.55078,-222.5508 0.64453,-0.6367 -200.39844,-200.3984 h 199.80664 v -0.022 h 20.92774 l 201.09766,201.0976 0.70898,-0.7011 -200.39648,-200.3965 H 856.2832 v -0.7988 H 655.67969 l -111.23047,-111.2305 110.07226,-110.0723 201.5625,201.5625 0.70899,-0.7011 -201.56641,-201.5665 0.40625,-0.4062 h 200.88672 v -0.7988 H 656.43164 l 200.20703,-200.20706 -0.70898,-0.70703 -200.91407,200.91409 h -0.99414 l -109.85351,-109.8535 90.32812,-90.33012 -0.42773,-0.42774 20.22656,-20.22656 H 856.4375 v -0.79883 H 655.09375 L 856.875,730.9082 856.16602,730.20117 653.67773,932.68945 H 433.37305 l 423.41992,-423.41797 -0.70899,-0.70703 -221.85937,221.86133 -0.20117,-0.20117 -201.3711,201.37109 V 711.29297 L 634.65039,509.29492 633.94141,508.58789 432.65234,709.87695 V 508.32227 h -0.082 v -0.17774 h -0.98242 v 202.79688 l -19.70898,19.70898 -0.42579,-0.42578 L 320.6875,820.99219 210.53516,710.83984 412.08008,509.29492 411.37109,508.58789 210.50977,709.45117 V 508.3457 h -0.082 v -0.20117 h -0.98242 V 709.74805 L 8.2617188,508.56445 7.5585938,509.27148 209.12305,710.83789 99.052734,820.91016 8.34375,730.20117 8.0371094,730.50781 -12.058594,710.41211 V 508.3457 h -0.08203 v -0.20117 z m 1.064453,203.67774 110.09961,110.09961 -110.072266,110.07226 -0.02734,-0.0273 z m 221.503904,0.10742 v 19.62695 h -0.15429 v 199.5918 L 99.757812,821.61719 Z m 1.06446,0.29297 109.47265,109.47461 -109.47265,109.47265 z m 221.07812,0.13476 v 19.17578 h -0.1543 V 931.73828 L 321.82031,822.125 Z M 98.746094,822.62891 208.80859,932.68945 H 8.2539062 v 0.0215 H -11.314453 l -0.01172,-0.0117 z m 222.369136,0.20117 109.85938,109.85937 h -219.7207 z m 313.17969,110.6582 h 18.58399 L 543.03125,1043.3359 433.20703,933.51172 h 201.08789 z m -867.37695,0.0234 H -13.546875 L -123.31445,1043.2793 Z m 222.568358,0 H 208.16797 L 98.828125,1042.8535 Z m 222.166012,0 h 200.07227 19.01172 L 321.19531,1043.0547 Z m 221,0.85547 109.67383,109.67381 -109.67383,109.6758 z m -444.710934,0.0234 19.5957034,19.59571 -0.1328125,0.13281 90.0800781,90.08006 -109.542969,109.541 z m 222.568364,0 109.67382,109.67578 -109.67382,109.6738 z m 220.92382,0.23633 V 1153.293 l -109.32812,-109.3282 89.82031,-89.82222 -0.004,-0.004 z m -222.14257,0.0215 V 1153.3164 L 99.958984,1043.9824 Z m -222.568364,0.002 V 1153.3164 L -122.61133,1043.9824 Z M 321.09375,1044.9746 430.44531,1154.3262 H 211.74219 Z m -444.84961,0.1524 109.222657,109.2226 H -232.97852 Z m 667.2168,0.049 109.15039,109.1504 H 434.3125 Z m -444.847659,0.1523 108.996099,108.9981 H 8.3359375 v 0.023 H -10.410156 Z M 634.37695,1155.125 h 19.03321 l 0.40429,0.4043 -110.07226,110.0723 -110.35157,-110.3516 0.0996,-0.1016 h 200.88672 z m -868.15429,0.023 h 220.042965 l 0.134766,0.1348 -110.578121,110.5801 -110.15821,-110.1563 z m 222.568356,0 H 208.43164 l 0.33594,0.336 -109.939455,109.9394 -110.154297,-110.1562 z m 222.332034,0 h 200.68359 19.41602 l -110.04883,110.0508 z m 221.52929,1.3848 110.07813,110.0781 -110.07227,110.0723 -0.006,-0.01 z m -223.36132,0.2441 v 219.1094 L 99.736328,1266.332 Z m -221.349614,0.047 109.744141,109.7442 -109.744141,109.7441 z m 443.492184,0.3809 V 1375.459 L 322.30664,1266.332 Z m -444.710934,0.012 v 219.5469 L -123.05078,1266.9902 Z m 223.787114,0.01 109.31835,109.3203 -109.31835,109.3184 z m 332.92773,110.0957 90.50391,90.502 0.30664,-0.3047 20.02148,20.0215 H 433.51367 l -0.14648,-0.1485 z M 98.591797,1267.4766 208.6543,1377.5371 H 8.0996094 v 0.023 H -11.492188 Z m 222.369143,0.2011 109.85937,109.8594 h -219.7207 z m -444.7168,0.018 109.865235,109.8652 H -234.4707 l 20.16211,-20.1621 0.42578,0.4239 z m 112.074219,110.6641 H 208.01367 L 98.166016,1488.209 Z m 223.445311,0 h 199.80664 19.41602 L 321.375,1487.9707 Z m 219.66992,0.9609 v 219.5859 l -19.71289,-19.7128 0.44141,-0.4356 -90.08399,-90.082 z m -222.14257,0.024 V 1599.334 L 99.296875,1489.3379 Z m -221.349614,0.049 109.519532,109.5195 -89.820313,89.8223 0.4277344,0.4258 -20.1269534,20.1269 z m 222.568364,0 109.72265,109.7226 -109.72265,109.7227 z"
         style="color:#000000;font-style:normal;font-variant:normal;font-weight:normal;font-stretch:normal;font-size:medium;line-height:normal;font-family:sans-serif;font-variant-ligatures:normal;font-variant-position:normal;font-variant-caps:normal;font-variant-numeric:normal;font-variant-alternates:normal;font-feature-settings:normal;text-indent:0;text-align:start;text-decoration:none;text-decoration-line:none;text-decoration-style:solid;text-decoration-color:#000000;letter-spacing:normal;word-spacing:normal;text-transform:none;writing-mode:lr-tb;direction:ltr;text-orientation:mixed;dominant-baseline:auto;baseline-shift:baseline;text-anchor:start;white-space:normal;shape-padding:0;clip-rule:nonzero;display:inline;overflow:visible;visibility:visible;opacity:1;isolation:auto;mix-blend-mode:normal;color-interpolation:sRGB;color-interpolation-filters:linearRGB;solid-color:#000000;solid-opacity:1;vector-effect:none;fill:#000000;fill-opacity:1;fill-rule:nonzero;stroke:none;stroke-width:0.99999994px;stroke-linecap:butt;stroke-linejoin:miter;stroke-miterlimit:4;stroke-dasharray:none;stroke-dashoffset:0;stroke-opacity:1;color-rendering:auto;image-rendering:auto;shape-rendering:auto;text-rendering:auto;enable-background:accumulate"
         inkscape:connector-curvature="0" />
    </g>
  </g>
</svg>
